<svg width="150" height="150" viewBox="0 0 150 150" fill="none" xmlns="http://www.w3.org/2000/svg">
<circle cx="75" cy="75" r="75" fill="white"/>
<path d="M85.799 27.8517L91.175 27.8517C92.9594 27.8517 93.853 30.0029 92.5913 31.2609L73.5426 50.2541C73.167 50.6286 72.6576 50.839 72.1264 50.839L63.5817 50.839L58.0305 50.839C56.2461 50.839 55.3525 48.6879 56.6143 47.4298L75.6629 28.4366C76.0385 28.0621 76.5479 27.8517 77.0791 27.8517L85.799 27.8517Z" fill="url(#paint0_linear_405_2890)"/>
<path d="M56.6193 55.3176C55.3576 54.0595 56.2512 51.9084 58.0356 51.9084H63.8663H72.1314C72.6626 51.9084 73.1721 52.1188 73.5477 52.4933L92.5963 71.4864C93.8581 72.7445 92.9645 74.8957 91.1801 74.8957L85.7807 74.8957L77.0842 74.8957C76.553 74.8957 76.0435 74.6853 75.6679 74.3107L56.6193 55.3176Z" fill="url(#paint1_linear_405_2890)"/>
<path d="M107.679 76.0114H113.16C114.944 76.0114 115.838 78.1626 114.576 79.4207L95.5273 98.4138C95.1517 98.7884 94.6422 98.9988 94.111 98.9988L85.4965 98.9988L80.0152 98.9988C78.2308 98.9988 77.3371 96.8476 78.5989 95.5895L97.6475 76.5964C98.0231 76.2218 98.5326 76.0114 99.0638 76.0114L107.679 76.0114Z" fill="url(#paint2_linear_405_2890)"/>
<path d="M78.6037 55.2712C77.342 54.0131 78.2356 51.8619 80.02 51.8619H85.8507H94.1159C94.6471 51.8619 95.1565 52.0723 95.5321 52.4469L114.581 71.44C115.842 72.6981 114.949 74.8492 113.164 74.8492L107.765 74.8492L99.0686 74.8492C98.5374 74.8492 98.028 74.6388 97.6523 74.2643L78.6037 55.2712Z" fill="url(#paint3_linear_405_2890)"/>
<path d="M62.6039 51.9084L67.9799 51.9084C69.7644 51.9084 70.658 54.0595 69.3962 55.3176L50.3476 74.3107C49.972 74.6853 49.4625 74.8957 48.9313 74.8957L40.3867 74.8957L34.8355 74.8957C33.0511 74.8957 32.1575 72.7445 33.4192 71.4864L52.4678 52.4933C52.8434 52.1188 53.3529 51.9084 53.8841 51.9084L62.6039 51.9084Z" fill="url(#paint4_linear_405_2890)"/>
<path d="M33.4242 79.3742C32.1624 78.1161 33.056 75.965 34.8404 75.965H40.6711H48.9363C49.4675 75.965 49.9769 76.1754 50.3526 76.5499L69.4012 95.5431C70.6629 96.8012 69.7693 98.9523 67.9849 98.9523L62.5856 98.9523L53.889 98.9523C53.3578 98.9523 52.8484 98.7419 52.4728 98.3674L33.4242 79.3742Z" fill="url(#paint5_linear_405_2890)"/>
<path d="M84.3443 100.161H89.8245C91.6089 100.161 92.5025 102.312 91.2407 103.57L72.1921 122.563C71.8165 122.938 71.3071 123.148 70.7759 123.148L62.1613 123.148L56.68 123.148C54.8956 123.148 54.002 120.997 55.2637 119.739L74.3123 100.746C74.688 100.371 75.1974 100.161 75.7286 100.161H84.3443Z" fill="url(#paint6_linear_405_2890)"/>
<path d="M55.2687 79.4207C54.0069 78.1626 54.9005 76.0114 56.6849 76.0114L62.5156 76.0114L70.7808 76.0114C71.312 76.0114 71.8215 76.2218 72.1971 76.5964L91.2457 95.5895C92.5074 96.8476 91.6138 98.9988 89.8294 98.9988L84.4301 98.9988L75.7336 98.9988C75.2023 98.9988 74.6929 98.7883 74.3173 98.4138L55.2687 79.4207Z" fill="url(#paint7_linear_405_2890)"/>
<defs>
<linearGradient id="paint0_linear_405_2890" x1="91.0702" y1="22.9259" x2="58.2313" y2="55.8606" gradientUnits="userSpaceOnUse">
<stop stop-color="#FE9D0C"/>
<stop offset="1" stop-color="#6E4100"/>
</linearGradient>
<linearGradient id="paint1_linear_405_2890" x1="58.1404" y1="46.9825" x2="90.9793" y2="79.9173" gradientUnits="userSpaceOnUse">
<stop stop-color="#FE9D0C"/>
<stop offset="1" stop-color="#6E4100"/>
</linearGradient>
<linearGradient id="paint2_linear_405_2890" x1="113.055" y1="71.0856" x2="80.216" y2="104.02" gradientUnits="userSpaceOnUse">
<stop stop-color="#120B00"/>
<stop offset="1" stop-color="#6E6E6E"/>
</linearGradient>
<linearGradient id="paint3_linear_405_2890" x1="80.1248" y1="46.9361" x2="112.964" y2="79.8708" gradientUnits="userSpaceOnUse">
<stop stop-color="#120B00"/>
<stop offset="1" stop-color="#6E6E6E"/>
</linearGradient>
<linearGradient id="paint4_linear_405_2890" x1="67.8752" y1="46.9825" x2="35.0363" y2="79.9173" gradientUnits="userSpaceOnUse">
<stop stop-color="#FF9900"/>
<stop offset="1"/>
</linearGradient>
<linearGradient id="paint5_linear_405_2890" x1="34.9452" y1="71.0391" x2="67.7841" y2="103.974" gradientUnits="userSpaceOnUse">
<stop stop-color="#FF9900"/>
<stop offset="1"/>
</linearGradient>
<linearGradient id="paint6_linear_405_2890" x1="89.7197" y1="95.2351" x2="56.8808" y2="128.17" gradientUnits="userSpaceOnUse">
<stop/>
<stop offset="1" stop-color="#A8A8A8"/>
</linearGradient>
<linearGradient id="paint7_linear_405_2890" x1="56.7897" y1="71.0856" x2="89.6286" y2="104.02" gradientUnits="userSpaceOnUse">
<stop/>
<stop offset="1" stop-color="#A8A8A8"/>
</linearGradient>
</defs>
</svg>
