<svg width="228" height="115" viewBox="0 0 228 115" fill="none" xmlns="http://www.w3.org/2000/svg">
<path d="M55.799 9.85171C59.5673 9.85171 61.4544 14.3945 58.7898 17.0513L44.4226 31.3767C43.4836 32.313 42.2099 32.839 40.8819 32.839L33.5817 32.839C29.7488 32.839 27.8293 28.2183 30.5396 25.5159L44.7829 11.314C45.7219 10.3777 46.9956 9.85171 48.3236 9.85171L55.799 9.85171Z" fill="url(#paint0_linear_256_7254)"/>
<path d="M30.7422 41.4285C27.959 38.6534 29.9302 33.9084 33.8663 33.9084H40.887C42.215 33.9084 43.4886 34.4344 44.4277 35.3707L58.7784 49.6797C61.4491 52.3426 59.5576 56.8957 55.7807 56.8957L48.3287 56.8957C47.0006 56.8957 45.727 56.3697 44.788 55.4333L30.7422 41.4285Z" fill="url(#paint1_linear_256_7254)"/>
<path d="M77.6795 58.0114C81.4862 58.0114 83.3926 62.6005 80.7008 65.2845L66.4073 79.5364C65.4682 80.4727 64.1946 80.9988 62.8666 80.9988L55.4965 80.9988C51.6894 80.9988 49.7827 76.4091 52.4748 73.7249L66.7676 59.4738C67.7066 58.5375 68.9802 58.0114 70.3082 58.0114L77.6795 58.0114Z" fill="url(#paint2_linear_256_7254)"/>
<path d="M52.7266 41.3821C49.9434 38.6069 51.9146 33.8619 55.8507 33.8619H62.8714C64.1994 33.8619 65.473 34.3879 66.4121 35.3243L80.7628 49.6332C83.4335 52.2961 81.542 56.8492 77.7651 56.8492L70.3131 56.8492C68.985 56.8492 67.7114 56.3232 66.7724 55.3869L52.7266 41.3821Z" fill="url(#paint3_linear_256_7254)"/>
<path d="M32.6039 33.9084C36.3722 33.9084 38.2594 38.4511 35.5948 41.1079L21.2276 55.4333C20.2885 56.3697 19.0149 56.8957 17.6869 56.8957L10.3867 56.8957C6.55376 56.8957 4.63422 52.275 7.34451 49.5726L21.5879 35.3707C22.5269 34.4344 23.8005 33.9084 25.1285 33.9084L32.6039 33.9084Z" fill="url(#paint4_linear_256_7254)"/>
<path d="M7.54707 65.4851C4.76385 62.71 6.73504 57.965 10.6711 57.965H17.6918C19.0198 57.965 20.2935 58.491 21.2325 59.4273L35.5833 73.7363C38.2539 76.3992 36.3625 80.9523 32.5856 80.9523L25.1335 80.9523C23.8055 80.9523 22.5319 80.4263 21.5928 79.49L7.54707 65.4851Z" fill="url(#paint5_linear_256_7254)"/>
<path d="M54.3443 82.161C58.151 82.161 60.0574 86.7501 57.3657 89.434L43.0721 103.686C42.133 104.622 40.8594 105.148 39.5314 105.148L32.1613 105.148C28.3542 105.148 26.4476 100.559 29.1396 97.8744L43.4324 83.6233C44.3714 82.687 45.645 82.161 46.9731 82.161L54.3443 82.161Z" fill="url(#paint6_linear_256_7254)"/>
<path d="M29.3916 65.5316C26.6084 62.7565 28.5796 58.0114 32.5156 58.0114H39.5363C40.8644 58.0114 42.138 58.5374 43.077 59.4738L57.4278 73.7827C60.0984 76.4456 58.207 80.9988 54.4301 80.9988L46.978 80.9988C45.65 80.9988 44.3764 80.4727 43.4373 79.5364L29.3916 65.5316Z" fill="url(#paint7_linear_256_7254)"/>
<path d="M112.812 61.0703C112.812 60.4609 112.719 59.9141 112.531 59.4297C112.359 58.9297 112.031 58.4766 111.547 58.0703C111.062 57.6484 110.383 57.2344 109.508 56.8281C108.633 56.4219 107.5 56 106.109 55.5625C104.562 55.0625 103.094 54.5 101.703 53.875C100.328 53.25 99.1094 52.5234 98.0469 51.6953C97 50.8516 96.1719 49.875 95.5625 48.7656C94.9688 47.6562 94.6719 46.3672 94.6719 44.8984C94.6719 43.4766 94.9844 42.1875 95.6094 41.0312C96.2344 39.8594 97.1094 38.8594 98.2344 38.0312C99.3594 37.1875 100.688 36.5391 102.219 36.0859C103.766 35.6328 105.461 35.4062 107.305 35.4062C109.82 35.4062 112.016 35.8594 113.891 36.7656C115.766 37.6719 117.219 38.9141 118.25 40.4922C119.297 42.0703 119.82 43.875 119.82 45.9062H112.836C112.836 44.9062 112.625 44.0312 112.203 43.2812C111.797 42.5156 111.172 41.9141 110.328 41.4766C109.5 41.0391 108.453 40.8203 107.188 40.8203C105.969 40.8203 104.953 41.0078 104.141 41.3828C103.328 41.7422 102.719 42.2344 102.312 42.8594C101.906 43.4688 101.703 44.1562 101.703 44.9219C101.703 45.5 101.844 46.0234 102.125 46.4922C102.422 46.9609 102.859 47.3984 103.438 47.8047C104.016 48.2109 104.727 48.5938 105.57 48.9531C106.414 49.3125 107.391 49.6641 108.5 50.0078C110.359 50.5703 111.992 51.2031 113.398 51.9062C114.82 52.6094 116.008 53.3984 116.961 54.2734C117.914 55.1484 118.633 56.1406 119.117 57.25C119.602 58.3594 119.844 59.6172 119.844 61.0234C119.844 62.5078 119.555 63.8359 118.977 65.0078C118.398 66.1797 117.562 67.1719 116.469 67.9844C115.375 68.7969 114.07 69.4141 112.555 69.8359C111.039 70.2578 109.344 70.4688 107.469 70.4688C105.781 70.4688 104.117 70.25 102.477 69.8125C100.836 69.3594 99.3438 68.6797 98 67.7734C96.6719 66.8672 95.6094 65.7109 94.8125 64.3047C94.0156 62.8984 93.6172 61.2344 93.6172 59.3125H100.672C100.672 60.375 100.836 61.2734 101.164 62.0078C101.492 62.7422 101.953 63.3359 102.547 63.7891C103.156 64.2422 103.875 64.5703 104.703 64.7734C105.547 64.9766 106.469 65.0781 107.469 65.0781C108.688 65.0781 109.688 64.9062 110.469 64.5625C111.266 64.2188 111.852 63.7422 112.227 63.1328C112.617 62.5234 112.812 61.8359 112.812 61.0703ZM134.435 70.4688C132.466 70.4688 130.701 70.1562 129.138 69.5312C127.576 68.8906 126.247 68.0078 125.154 66.8828C124.076 65.7578 123.247 64.4531 122.669 62.9688C122.091 61.4688 121.802 59.875 121.802 58.1875V57.25C121.802 55.3281 122.076 53.5703 122.622 51.9766C123.169 50.3828 123.951 49 124.966 47.8281C125.997 46.6562 127.247 45.7578 128.716 45.1328C130.185 44.4922 131.841 44.1719 133.685 44.1719C135.482 44.1719 137.076 44.4688 138.466 45.0625C139.857 45.6562 141.021 46.5 141.958 47.5938C142.912 48.6875 143.63 50 144.115 51.5312C144.599 53.0469 144.841 54.7344 144.841 56.5938V59.4062H124.685V54.9062H138.208V54.3906C138.208 53.4531 138.037 52.6172 137.693 51.8828C137.365 51.1328 136.865 50.5391 136.193 50.1016C135.521 49.6641 134.662 49.4453 133.615 49.4453C132.724 49.4453 131.958 49.6406 131.318 50.0312C130.677 50.4219 130.154 50.9688 129.747 51.6719C129.357 52.375 129.06 53.2031 128.857 54.1562C128.669 55.0938 128.576 56.125 128.576 57.25V58.1875C128.576 59.2031 128.716 60.1406 128.997 61C129.294 61.8594 129.708 62.6016 130.24 63.2266C130.787 63.8516 131.443 64.3359 132.208 64.6797C132.99 65.0234 133.872 65.1953 134.857 65.1953C136.076 65.1953 137.208 64.9609 138.255 64.4922C139.318 64.0078 140.232 63.2812 140.997 62.3125L144.279 65.875C143.747 66.6406 143.021 67.375 142.099 68.0781C141.193 68.7812 140.099 69.3594 138.818 69.8125C137.537 70.25 136.076 70.4688 134.435 70.4688ZM154.37 34V70H147.597V34H154.37ZM172.196 64.2812V52.9844C172.196 52.1719 172.063 51.4766 171.797 50.8984C171.532 50.3047 171.118 49.8438 170.555 49.5156C170.008 49.1875 169.297 49.0234 168.422 49.0234C167.672 49.0234 167.024 49.1562 166.477 49.4219C165.93 49.6719 165.508 50.0391 165.211 50.5234C164.914 50.9922 164.766 51.5469 164.766 52.1875H158.016C158.016 51.1094 158.266 50.0859 158.766 49.1172C159.266 48.1484 159.993 47.2969 160.946 46.5625C161.899 45.8125 163.032 45.2266 164.344 44.8047C165.672 44.3828 167.157 44.1719 168.797 44.1719C170.766 44.1719 172.516 44.5 174.047 45.1562C175.578 45.8125 176.782 46.7969 177.657 48.1094C178.547 49.4219 178.993 51.0625 178.993 53.0312V63.8828C178.993 65.2734 179.078 66.4141 179.25 67.3047C179.422 68.1797 179.672 68.9453 180 69.6016V70H173.18C172.852 69.3125 172.602 68.4531 172.43 67.4219C172.274 66.375 172.196 65.3281 172.196 64.2812ZM173.086 54.5547L173.133 58.375H169.36C168.469 58.375 167.696 58.4766 167.039 58.6797C166.383 58.8828 165.844 59.1719 165.422 59.5469C165 59.9062 164.688 60.3281 164.485 60.8125C164.297 61.2969 164.203 61.8281 164.203 62.4062C164.203 62.9844 164.336 63.5078 164.602 63.9766C164.868 64.4297 165.25 64.7891 165.75 65.0547C166.25 65.3047 166.836 65.4297 167.508 65.4297C168.524 65.4297 169.407 65.2266 170.157 64.8203C170.907 64.4141 171.485 63.9141 171.891 63.3203C172.313 62.7266 172.532 62.1641 172.547 61.6328L174.328 64.4922C174.078 65.1328 173.735 65.7969 173.297 66.4844C172.875 67.1719 172.336 67.8203 171.68 68.4297C171.024 69.0234 170.235 69.5156 169.313 69.9062C168.391 70.2812 167.297 70.4688 166.032 70.4688C164.422 70.4688 162.961 70.1484 161.649 69.5078C160.352 68.8516 159.321 67.9531 158.555 66.8125C157.805 65.6562 157.43 64.3438 157.43 62.875C157.43 61.5469 157.68 60.3672 158.18 59.3359C158.68 58.3047 159.414 57.4375 160.383 56.7344C161.368 56.0156 162.594 55.4766 164.063 55.1172C165.532 54.7422 167.235 54.5547 169.172 54.5547H173.086Z" fill="#232323"/>
<path d="M100.188 82.3828H101.688C101.609 83.1016 101.404 83.7448 101.07 84.3125C100.737 84.8802 100.266 85.3307 99.6562 85.6641C99.0469 85.9922 98.2865 86.1562 97.375 86.1562C96.7083 86.1562 96.1016 86.0312 95.5547 85.7812C95.013 85.5312 94.5469 85.1771 94.1562 84.7188C93.7656 84.2552 93.4635 83.7005 93.25 83.0547C93.0417 82.4036 92.9375 81.6797 92.9375 80.8828V79.75C92.9375 78.9531 93.0417 78.2318 93.25 77.5859C93.4635 76.9349 93.7682 76.3776 94.1641 75.9141C94.5651 75.4505 95.0469 75.0938 95.6094 74.8438C96.1719 74.5938 96.8047 74.4688 97.5078 74.4688C98.3672 74.4688 99.0938 74.6302 99.6875 74.9531C100.281 75.276 100.742 75.724 101.07 76.2969C101.404 76.8646 101.609 77.5234 101.688 78.2734H100.188C100.115 77.7422 99.9792 77.2865 99.7812 76.9062C99.5833 76.5208 99.3021 76.224 98.9375 76.0156C98.5729 75.8073 98.0964 75.7031 97.5078 75.7031C97.0026 75.7031 96.5573 75.7995 96.1719 75.9922C95.7917 76.1849 95.4714 76.4583 95.2109 76.8125C94.9557 77.1667 94.763 77.5911 94.6328 78.0859C94.5026 78.5807 94.4375 79.1302 94.4375 79.7344V80.8828C94.4375 81.4401 94.4948 81.9635 94.6094 82.4531C94.7292 82.9427 94.9089 83.3724 95.1484 83.7422C95.388 84.112 95.6927 84.4036 96.0625 84.6172C96.4323 84.8255 96.8698 84.9297 97.375 84.9297C98.0156 84.9297 98.526 84.8281 98.9062 84.625C99.2865 84.4219 99.5729 84.1302 99.7656 83.75C99.9635 83.3698 100.104 82.9141 100.188 82.3828ZM103.301 81.8672V81.6875C103.301 81.0781 103.389 80.513 103.566 79.9922C103.743 79.4661 103.999 79.0104 104.332 78.625C104.665 78.2344 105.069 77.9323 105.543 77.7188C106.017 77.5 106.548 77.3906 107.137 77.3906C107.73 77.3906 108.264 77.5 108.738 77.7188C109.217 77.9323 109.624 78.2344 109.957 78.625C110.295 79.0104 110.553 79.4661 110.73 79.9922C110.907 80.513 110.996 81.0781 110.996 81.6875V81.8672C110.996 82.4766 110.907 83.0417 110.73 83.5625C110.553 84.0833 110.295 84.5391 109.957 84.9297C109.624 85.3151 109.22 85.6172 108.746 85.8359C108.277 86.0495 107.746 86.1562 107.152 86.1562C106.558 86.1562 106.025 86.0495 105.551 85.8359C105.077 85.6172 104.67 85.3151 104.332 84.9297C103.999 84.5391 103.743 84.0833 103.566 83.5625C103.389 83.0417 103.301 82.4766 103.301 81.8672ZM104.746 81.6875V81.8672C104.746 82.2891 104.795 82.6875 104.894 83.0625C104.993 83.4323 105.142 83.7604 105.34 84.0469C105.543 84.3333 105.795 84.5599 106.097 84.7266C106.4 84.888 106.751 84.9688 107.152 84.9688C107.548 84.9688 107.894 84.888 108.191 84.7266C108.493 84.5599 108.743 84.3333 108.941 84.0469C109.139 83.7604 109.288 83.4323 109.387 83.0625C109.491 82.6875 109.543 82.2891 109.543 81.8672V81.6875C109.543 81.2708 109.491 80.8776 109.387 80.5078C109.288 80.1328 109.137 79.8021 108.933 79.5156C108.736 79.224 108.486 78.9948 108.183 78.8281C107.887 78.6615 107.538 78.5781 107.137 78.5781C106.741 78.5781 106.392 78.6615 106.09 78.8281C105.793 78.9948 105.543 79.224 105.34 79.5156C105.142 79.8021 104.993 80.1328 104.894 80.5078C104.795 80.8776 104.746 81.2708 104.746 81.6875ZM114.414 79.3516V86H112.968V77.5469H114.336L114.414 79.3516ZM114.07 81.4531L113.468 81.4297C113.474 80.8516 113.56 80.3177 113.726 79.8281C113.893 79.3333 114.127 78.9036 114.429 78.5391C114.731 78.1745 115.091 77.8932 115.507 77.6953C115.929 77.4922 116.396 77.3906 116.906 77.3906C117.323 77.3906 117.698 77.4479 118.031 77.5625C118.364 77.6719 118.648 77.849 118.882 78.0938C119.122 78.3385 119.304 78.6562 119.429 79.0469C119.554 79.4323 119.617 79.9036 119.617 80.4609V86H118.164V80.4453C118.164 80.0026 118.099 79.6484 117.968 79.3828C117.838 79.112 117.648 78.9167 117.398 78.7969C117.148 78.6719 116.841 78.6094 116.476 78.6094C116.117 78.6094 115.789 78.6849 115.492 78.8359C115.2 78.987 114.948 79.1953 114.734 79.4609C114.526 79.7266 114.362 80.0312 114.242 80.375C114.127 80.7135 114.07 81.0729 114.07 81.4531ZM123.417 79.3516V86H121.972V77.5469H123.339L123.417 79.3516ZM123.074 81.4531L122.472 81.4297C122.477 80.8516 122.563 80.3177 122.73 79.8281C122.897 79.3333 123.131 78.9036 123.433 78.5391C123.735 78.1745 124.095 77.8932 124.511 77.6953C124.933 77.4922 125.399 77.3906 125.91 77.3906C126.326 77.3906 126.701 77.4479 127.035 77.5625C127.368 77.6719 127.652 77.849 127.886 78.0938C128.126 78.3385 128.308 78.6562 128.433 79.0469C128.558 79.4323 128.621 79.9036 128.621 80.4609V86H127.167V80.4453C127.167 80.0026 127.102 79.6484 126.972 79.3828C126.842 79.112 126.652 78.9167 126.402 78.7969C126.152 78.6719 125.845 78.6094 125.48 78.6094C125.121 78.6094 124.792 78.6849 124.496 78.8359C124.204 78.987 123.951 79.1953 123.738 79.4609C123.529 79.7266 123.365 80.0312 123.246 80.375C123.131 80.7135 123.074 81.0729 123.074 81.4531ZM134.484 86.1562C133.895 86.1562 133.361 86.0573 132.882 85.8594C132.408 85.6562 131.999 85.3724 131.656 85.0078C131.317 84.6432 131.057 84.2109 130.874 83.7109C130.692 83.2109 130.601 82.6641 130.601 82.0703V81.7422C130.601 81.0547 130.702 80.4427 130.906 79.9062C131.109 79.3646 131.385 78.9062 131.734 78.5312C132.083 78.1562 132.479 77.8724 132.921 77.6797C133.364 77.487 133.822 77.3906 134.296 77.3906C134.9 77.3906 135.421 77.4948 135.859 77.7031C136.301 77.9115 136.663 78.2031 136.945 78.5781C137.226 78.9479 137.434 79.3854 137.57 79.8906C137.705 80.3906 137.773 80.9375 137.773 81.5312V82.1797H131.46V81H136.327V80.8906C136.307 80.5156 136.229 80.151 136.093 79.7969C135.963 79.4427 135.755 79.151 135.468 78.9219C135.182 78.6927 134.791 78.5781 134.296 78.5781C133.968 78.5781 133.666 78.6484 133.39 78.7891C133.114 78.9245 132.877 79.1276 132.679 79.3984C132.481 79.6693 132.327 80 132.218 80.3906C132.109 80.7812 132.054 81.2318 132.054 81.7422V82.0703C132.054 82.4714 132.109 82.849 132.218 83.2031C132.333 83.5521 132.497 83.8594 132.71 84.125C132.929 84.3906 133.192 84.599 133.499 84.75C133.812 84.901 134.166 84.9766 134.562 84.9766C135.072 84.9766 135.505 84.8724 135.859 84.6641C136.213 84.4557 136.523 84.1771 136.788 83.8281L137.663 84.5234C137.481 84.7995 137.249 85.0625 136.968 85.3125C136.687 85.5625 136.341 85.7656 135.929 85.9219C135.523 86.0781 135.041 86.1562 134.484 86.1562ZM143.003 84.9688C143.347 84.9688 143.665 84.8984 143.956 84.7578C144.248 84.6172 144.487 84.4245 144.675 84.1797C144.862 83.9297 144.969 83.6458 144.995 83.3281H146.37C146.344 83.8281 146.175 84.2943 145.862 84.7266C145.555 85.1536 145.152 85.5 144.652 85.7656C144.152 86.026 143.602 86.1562 143.003 86.1562C142.368 86.1562 141.813 86.0443 141.339 85.8203C140.87 85.5964 140.48 85.2891 140.167 84.8984C139.86 84.5078 139.628 84.0599 139.472 83.5547C139.321 83.0443 139.245 82.5052 139.245 81.9375V81.6094C139.245 81.0417 139.321 80.5052 139.472 80C139.628 79.4896 139.86 79.0391 140.167 78.6484C140.48 78.2578 140.87 77.9505 141.339 77.7266C141.813 77.5026 142.368 77.3906 143.003 77.3906C143.665 77.3906 144.243 77.526 144.737 77.7969C145.232 78.0625 145.62 78.4271 145.902 78.8906C146.188 79.349 146.344 79.8698 146.37 80.4531H144.995C144.969 80.1042 144.87 79.7891 144.698 79.5078C144.532 79.2266 144.303 79.0026 144.011 78.8359C143.724 78.6641 143.389 78.5781 143.003 78.5781C142.56 78.5781 142.188 78.6667 141.886 78.8438C141.589 79.0156 141.352 79.25 141.175 79.5469C141.003 79.8385 140.878 80.1641 140.8 80.5234C140.727 80.8776 140.691 81.2396 140.691 81.6094V81.9375C140.691 82.3073 140.727 82.6719 140.8 83.0312C140.873 83.3906 140.995 83.7161 141.167 84.0078C141.344 84.2995 141.581 84.5339 141.878 84.7109C142.18 84.8828 142.555 84.9688 143.003 84.9688ZM151.694 77.5469V78.6562H147.124V77.5469H151.694ZM148.671 75.4922H150.116V83.9062C150.116 84.1927 150.161 84.4089 150.249 84.5547C150.338 84.7005 150.452 84.7969 150.593 84.8438C150.733 84.8906 150.884 84.9141 151.046 84.9141C151.166 84.9141 151.291 84.9036 151.421 84.8828C151.556 84.8568 151.658 84.8359 151.726 84.8203L151.733 86C151.619 86.0365 151.468 86.0703 151.28 86.1016C151.098 86.138 150.877 86.1562 150.616 86.1562C150.262 86.1562 149.937 86.0859 149.64 85.9453C149.343 85.8047 149.106 85.5703 148.929 85.2422C148.757 84.9089 148.671 84.4609 148.671 83.8984V75.4922ZM164.796 84.7734V86H159.108V84.7734H164.796ZM159.405 74.625V86H157.897V74.625H159.405ZM166.081 81.8672V81.6875C166.081 81.0781 166.169 80.513 166.346 79.9922C166.523 79.4661 166.779 79.0104 167.112 78.625C167.445 78.2344 167.849 77.9323 168.323 77.7188C168.797 77.5 169.328 77.3906 169.917 77.3906C170.51 77.3906 171.044 77.5 171.518 77.7188C171.997 77.9323 172.404 78.2344 172.737 78.625C173.075 79.0104 173.333 79.4661 173.51 79.9922C173.687 80.513 173.776 81.0781 173.776 81.6875V81.8672C173.776 82.4766 173.687 83.0417 173.51 83.5625C173.333 84.0833 173.075 84.5391 172.737 84.9297C172.404 85.3151 172 85.6172 171.526 85.8359C171.057 86.0495 170.526 86.1562 169.932 86.1562C169.338 86.1562 168.805 86.0495 168.331 85.8359C167.857 85.6172 167.45 85.3151 167.112 84.9297C166.779 84.5391 166.523 84.0833 166.346 83.5625C166.169 83.0417 166.081 82.4766 166.081 81.8672ZM167.526 81.6875V81.8672C167.526 82.2891 167.575 82.6875 167.674 83.0625C167.773 83.4323 167.922 83.7604 168.12 84.0469C168.323 84.3333 168.575 84.5599 168.878 84.7266C169.18 84.888 169.531 84.9688 169.932 84.9688C170.328 84.9688 170.674 84.888 170.971 84.7266C171.273 84.5599 171.523 84.3333 171.721 84.0469C171.919 83.7604 172.068 83.4323 172.167 83.0625C172.271 82.6875 172.323 82.2891 172.323 81.8672V81.6875C172.323 81.2708 172.271 80.8776 172.167 80.5078C172.068 80.1328 171.917 79.8021 171.713 79.5156C171.516 79.224 171.266 78.9948 170.963 78.8281C170.667 78.6615 170.318 78.5781 169.917 78.5781C169.521 78.5781 169.172 78.6615 168.87 78.8281C168.573 78.9948 168.323 79.224 168.12 79.5156C167.922 79.8021 167.773 80.1328 167.674 80.5078C167.575 80.8776 167.526 81.2708 167.526 81.6875ZM181.225 77.5469H182.537V85.8203C182.537 86.5651 182.386 87.2005 182.084 87.7266C181.782 88.2526 181.36 88.651 180.819 88.9219C180.282 89.1979 179.662 89.3359 178.959 89.3359C178.668 89.3359 178.324 89.2891 177.928 89.1953C177.537 89.1068 177.152 88.9531 176.772 88.7344C176.397 88.5208 176.082 88.2318 175.827 87.8672L176.584 87.0078C176.939 87.4349 177.308 87.7318 177.694 87.8984C178.084 88.0651 178.47 88.1484 178.85 88.1484C179.308 88.1484 179.704 88.0625 180.037 87.8906C180.371 87.7188 180.629 87.4635 180.811 87.125C180.998 86.7917 181.092 86.3802 181.092 85.8906V79.4062L181.225 77.5469ZM175.405 81.8672V81.7031C175.405 81.0573 175.48 80.4714 175.631 79.9453C175.787 79.4141 176.009 78.9583 176.295 78.5781C176.587 78.1979 176.939 77.9062 177.35 77.7031C177.761 77.4948 178.225 77.3906 178.741 77.3906C179.272 77.3906 179.735 77.4844 180.131 77.6719C180.532 77.8542 180.871 78.1224 181.147 78.4766C181.428 78.8255 181.649 79.2474 181.811 79.7422C181.972 80.237 182.084 80.7969 182.147 81.4219V82.1406C182.09 82.7604 181.978 83.3177 181.811 83.8125C181.649 84.3073 181.428 84.7292 181.147 85.0781C180.871 85.4271 180.532 85.6953 180.131 85.8828C179.73 86.0651 179.261 86.1562 178.725 86.1562C178.22 86.1562 177.761 86.0495 177.35 85.8359C176.944 85.6224 176.595 85.3229 176.303 84.9375C176.011 84.5521 175.787 84.099 175.631 83.5781C175.48 83.0521 175.405 82.4818 175.405 81.8672ZM176.85 81.7031V81.8672C176.85 82.2891 176.892 82.6849 176.975 83.0547C177.064 83.4245 177.196 83.75 177.373 84.0312C177.556 84.3125 177.787 84.5339 178.069 84.6953C178.35 84.8516 178.686 84.9297 179.077 84.9297C179.556 84.9297 179.952 84.8281 180.264 84.625C180.577 84.4219 180.824 84.1536 181.006 83.8203C181.194 83.487 181.34 83.125 181.444 82.7344V80.8516C181.386 80.5651 181.298 80.2891 181.178 80.0234C181.064 79.7526 180.912 79.513 180.725 79.3047C180.543 79.0911 180.316 78.9219 180.045 78.7969C179.774 78.6719 179.457 78.6094 179.092 78.6094C178.696 78.6094 178.355 78.6927 178.069 78.8594C177.787 79.0208 177.556 79.2448 177.373 79.5312C177.196 79.8125 177.064 80.1406 176.975 80.5156C176.892 80.8854 176.85 81.2812 176.85 81.7031ZM186.463 77.5469V86H185.01V77.5469H186.463ZM184.901 75.3047C184.901 75.0703 184.971 74.8724 185.112 74.7109C185.257 74.5495 185.471 74.4688 185.752 74.4688C186.028 74.4688 186.239 74.5495 186.385 74.7109C186.536 74.8724 186.612 75.0703 186.612 75.3047C186.612 75.5286 186.536 75.7214 186.385 75.8828C186.239 76.0391 186.028 76.1172 185.752 76.1172C185.471 76.1172 185.257 76.0391 185.112 75.8828C184.971 75.7214 184.901 75.5286 184.901 75.3047ZM193.865 83.7578C193.865 83.5495 193.818 83.3568 193.725 83.1797C193.636 82.9974 193.451 82.8333 193.17 82.6875C192.894 82.5365 192.477 82.4062 191.92 82.2969C191.451 82.1979 191.027 82.0807 190.647 81.9453C190.272 81.8099 189.951 81.6458 189.686 81.4531C189.425 81.2604 189.225 81.0339 189.084 80.7734C188.943 80.513 188.873 80.2083 188.873 79.8594C188.873 79.526 188.946 79.2109 189.092 78.9141C189.243 78.6172 189.454 78.3542 189.725 78.125C190.001 77.8958 190.331 77.7161 190.717 77.5859C191.102 77.4557 191.532 77.3906 192.006 77.3906C192.683 77.3906 193.261 77.5104 193.74 77.75C194.219 77.9896 194.587 78.3099 194.842 78.7109C195.097 79.1068 195.225 79.5469 195.225 80.0312H193.779C193.779 79.7969 193.709 79.5703 193.568 79.3516C193.433 79.1276 193.232 78.9427 192.967 78.7969C192.706 78.651 192.386 78.5781 192.006 78.5781C191.605 78.5781 191.279 78.6406 191.029 78.7656C190.785 78.8854 190.605 79.0391 190.49 79.2266C190.381 79.4141 190.326 79.612 190.326 79.8203C190.326 79.9766 190.352 80.1172 190.404 80.2422C190.462 80.362 190.561 80.474 190.701 80.5781C190.842 80.6771 191.04 80.7708 191.295 80.8594C191.55 80.9479 191.876 81.0365 192.272 81.125C192.964 81.2812 193.535 81.4688 193.982 81.6875C194.43 81.9062 194.764 82.1745 194.982 82.4922C195.201 82.8099 195.311 83.1953 195.311 83.6484C195.311 84.0182 195.232 84.3568 195.076 84.6641C194.925 84.9714 194.704 85.237 194.412 85.4609C194.126 85.6797 193.782 85.8516 193.381 85.9766C192.985 86.0964 192.54 86.1562 192.045 86.1562C191.3 86.1562 190.67 86.0234 190.154 85.7578C189.639 85.4922 189.248 85.1484 188.982 84.7266C188.717 84.3047 188.584 83.8594 188.584 83.3906H190.037C190.058 83.7865 190.173 84.1016 190.381 84.3359C190.589 84.5651 190.844 84.7292 191.147 84.8281C191.449 84.9219 191.748 84.9688 192.045 84.9688C192.441 84.9688 192.772 84.9167 193.037 84.8125C193.308 84.7083 193.514 84.5651 193.654 84.3828C193.795 84.2005 193.865 83.9922 193.865 83.7578ZM200.908 77.5469V78.6562H196.338V77.5469H200.908ZM197.885 75.4922H199.33V83.9062C199.33 84.1927 199.374 84.4089 199.463 84.5547C199.551 84.7005 199.666 84.7969 199.807 84.8438C199.947 84.8906 200.098 84.9141 200.26 84.9141C200.379 84.9141 200.504 84.9036 200.635 84.8828C200.77 84.8568 200.872 84.8359 200.939 84.8203L200.947 86C200.833 86.0365 200.682 86.0703 200.494 86.1016C200.312 86.138 200.09 86.1562 199.83 86.1562C199.476 86.1562 199.15 86.0859 198.853 85.9453C198.557 85.8047 198.32 85.5703 198.143 85.2422C197.971 84.9089 197.885 84.4609 197.885 83.8984V75.4922ZM204.334 77.5469V86H202.881V77.5469H204.334ZM202.771 75.3047C202.771 75.0703 202.842 74.8724 202.982 74.7109C203.128 74.5495 203.342 74.4688 203.623 74.4688C203.899 74.4688 204.11 74.5495 204.256 74.7109C204.407 74.8724 204.482 75.0703 204.482 75.3047C204.482 75.5286 204.407 75.7214 204.256 75.8828C204.11 76.0391 203.899 76.1172 203.623 76.1172C203.342 76.1172 203.128 76.0391 202.982 75.8828C202.842 75.7214 202.771 75.5286 202.771 75.3047ZM210.197 84.9688C210.541 84.9688 210.858 84.8984 211.15 84.7578C211.442 84.6172 211.681 84.4245 211.869 84.1797C212.056 83.9297 212.163 83.6458 212.189 83.3281H213.564C213.538 83.8281 213.369 84.2943 213.056 84.7266C212.749 85.1536 212.345 85.5 211.845 85.7656C211.345 86.026 210.796 86.1562 210.197 86.1562C209.561 86.1562 209.007 86.0443 208.533 85.8203C208.064 85.5964 207.673 85.2891 207.361 84.8984C207.054 84.5078 206.822 84.0599 206.666 83.5547C206.515 83.0443 206.439 82.5052 206.439 81.9375V81.6094C206.439 81.0417 206.515 80.5052 206.666 80C206.822 79.4896 207.054 79.0391 207.361 78.6484C207.673 78.2578 208.064 77.9505 208.533 77.7266C209.007 77.5026 209.561 77.3906 210.197 77.3906C210.858 77.3906 211.436 77.526 211.931 77.7969C212.426 78.0625 212.814 78.4271 213.095 78.8906C213.382 79.349 213.538 79.8698 213.564 80.4531H212.189C212.163 80.1042 212.064 79.7891 211.892 79.5078C211.726 79.2266 211.496 79.0026 211.205 78.8359C210.918 78.6641 210.582 78.5781 210.197 78.5781C209.754 78.5781 209.382 78.6667 209.08 78.8438C208.783 79.0156 208.546 79.25 208.369 79.5469C208.197 79.8385 208.072 80.1641 207.994 80.5234C207.921 80.8776 207.884 81.2396 207.884 81.6094V81.9375C207.884 82.3073 207.921 82.6719 207.994 83.0312C208.067 83.3906 208.189 83.7161 208.361 84.0078C208.538 84.2995 208.775 84.5339 209.072 84.7109C209.374 84.8828 209.749 84.9688 210.197 84.9688ZM220.271 83.7578C220.271 83.5495 220.224 83.3568 220.13 83.1797C220.042 82.9974 219.857 82.8333 219.576 82.6875C219.3 82.5365 218.883 82.4062 218.326 82.2969C217.857 82.1979 217.432 82.0807 217.052 81.9453C216.677 81.8099 216.357 81.6458 216.091 81.4531C215.831 81.2604 215.63 81.0339 215.49 80.7734C215.349 80.513 215.279 80.2083 215.279 79.8594C215.279 79.526 215.352 79.2109 215.497 78.9141C215.649 78.6172 215.859 78.3542 216.13 78.125C216.406 77.8958 216.737 77.7161 217.122 77.5859C217.508 77.4557 217.938 77.3906 218.412 77.3906C219.089 77.3906 219.667 77.5104 220.146 77.75C220.625 77.9896 220.992 78.3099 221.247 78.7109C221.503 79.1068 221.63 79.5469 221.63 80.0312H220.185C220.185 79.7969 220.115 79.5703 219.974 79.3516C219.839 79.1276 219.638 78.9427 219.372 78.7969C219.112 78.651 218.792 78.5781 218.412 78.5781C218.011 78.5781 217.685 78.6406 217.435 78.7656C217.19 78.8854 217.011 79.0391 216.896 79.2266C216.787 79.4141 216.732 79.612 216.732 79.8203C216.732 79.9766 216.758 80.1172 216.81 80.2422C216.867 80.362 216.966 80.474 217.107 80.5781C217.247 80.6771 217.445 80.7708 217.701 80.8594C217.956 80.9479 218.281 81.0365 218.677 81.125C219.37 81.2812 219.94 81.4688 220.388 81.6875C220.836 81.9062 221.169 82.1745 221.388 82.4922C221.607 82.8099 221.716 83.1953 221.716 83.6484C221.716 84.0182 221.638 84.3568 221.482 84.6641C221.331 84.9714 221.109 85.237 220.818 85.4609C220.531 85.6797 220.188 85.8516 219.787 85.9766C219.391 86.0964 218.945 86.1562 218.451 86.1562C217.706 86.1562 217.076 86.0234 216.56 85.7578C216.044 85.4922 215.654 85.1484 215.388 84.7266C215.122 84.3047 214.99 83.8594 214.99 83.3906H216.443C216.464 83.7865 216.578 84.1016 216.787 84.3359C216.995 84.5651 217.25 84.7292 217.552 84.8281C217.854 84.9219 218.154 84.9688 218.451 84.9688C218.846 84.9688 219.177 84.9167 219.443 84.8125C219.714 84.7083 219.919 84.5651 220.06 84.3828C220.201 84.2005 220.271 83.9922 220.271 83.7578Z" fill="#B3700C"/>
<defs>
<linearGradient id="paint0_linear_256_7254" x1="61.0702" y1="4.92586" x2="28.2313" y2="37.8606" gradientUnits="userSpaceOnUse">
<stop stop-color="#FE9D0C"/>
<stop offset="1" stop-color="#6E4100"/>
</linearGradient>
<linearGradient id="paint1_linear_256_7254" x1="28.1404" y1="28.9825" x2="60.9793" y2="61.9173" gradientUnits="userSpaceOnUse">
<stop stop-color="#FE9D0C"/>
<stop offset="1" stop-color="#6E4100"/>
</linearGradient>
<linearGradient id="paint2_linear_256_7254" x1="83.0549" y1="53.0856" x2="50.216" y2="86.0204" gradientUnits="userSpaceOnUse">
<stop stop-color="#120B00"/>
<stop offset="1" stop-color="#6E6E6E"/>
</linearGradient>
<linearGradient id="paint3_linear_256_7254" x1="50.1248" y1="28.9361" x2="82.9637" y2="61.8708" gradientUnits="userSpaceOnUse">
<stop stop-color="#120B00"/>
<stop offset="1" stop-color="#6E6E6E"/>
</linearGradient>
<linearGradient id="paint4_linear_256_7254" x1="37.8752" y1="28.9825" x2="5.03628" y2="61.9173" gradientUnits="userSpaceOnUse">
<stop stop-color="#FF9900"/>
<stop offset="1"/>
</linearGradient>
<linearGradient id="paint5_linear_256_7254" x1="4.94521" y1="53.0391" x2="37.7841" y2="85.9739" gradientUnits="userSpaceOnUse">
<stop stop-color="#FF9900"/>
<stop offset="1"/>
</linearGradient>
<linearGradient id="paint6_linear_256_7254" x1="59.7197" y1="77.2351" x2="26.8808" y2="110.17" gradientUnits="userSpaceOnUse">
<stop/>
<stop offset="1" stop-color="#A8A8A8"/>
</linearGradient>
<linearGradient id="paint7_linear_256_7254" x1="26.7897" y1="53.0856" x2="59.6286" y2="86.0203" gradientUnits="userSpaceOnUse">
<stop/>
<stop offset="1" stop-color="#A8A8A8"/>
</linearGradient>
</defs>
</svg>
